<svg width="370" height="104" viewBox="0 0 370 104" fill="none" xmlns="http://www.w3.org/2000/svg">
<path d="M15.1094 0.890625L15.1562 102.703H19.5625L19.5156 22.0781C19.6719 18.7656 21.4688 19.3438 24.9062 23.8125L80.875 103.453V9.65625C80.875 5.46875 83.75 3.4375 89.5 3.5625V0.890625H68.0781C74.3281 2.39062 77.4531 5.40625 77.4531 9.9375V79.4062L21.4375 0.890625H15.1094ZM15.1562 16.0312C14.8438 8.3125 9.89062 3.26563 0.296875 0.890625H15.1562V16.0312ZM108.531 42.1875H149.453C150.766 46.1875 151.047 51.0312 150.297 56.7188C148.078 50.0312 143.547 46.2969 136.703 45.5156H125.266C123.578 45.5156 122.719 48.3281 122.688 53.9531V70.4062H136.375V72.9844H122.688V96.5156C122.688 99.4844 124.516 101.031 128.172 101.156C131.859 101.281 135.406 100.844 138.812 99.8438C142.219 98.8438 144.891 97.1562 146.828 94.7812C148.797 92.4062 150.219 90.3281 151.094 88.5469C151.969 86.7656 152.688 85.8438 153.25 85.7812C153.844 85.75 154.25 86.1719 154.469 87.0469C154.719 87.9219 154.5 89.375 153.812 91.4062C153.125 93.4375 152.156 97.25 150.906 102.844L107.219 102.891C113.938 102.891 117.281 99 117.25 91.2188V49.5C117.281 46.0938 114.375 43.6562 108.531 42.1875ZM185.875 87.0938L174.719 51.0469L164.781 41.7188L183.391 103.875L185.875 87.0938ZM195.062 41.4844C199.656 41.5781 200.484 45.3125 197.547 52.6875L181.703 92.2031L183.391 103.922L202.422 52.5469C205.297 45.3594 208.25 41.6719 211.281 41.4844H195.062ZM220 42.1875H260.922C262.234 46.1875 262.516 51.0312 261.766 56.7188C259.547 50.0312 255.016 46.2969 248.172 45.5156H236.734C235.047 45.5156 234.188 48.3281 234.156 53.9531V70.4062H247.844V72.9844H234.156V96.5156C234.156 99.4844 235.984 101.031 239.641 101.156C243.328 101.281 246.875 100.844 250.281 99.8438C253.688 98.8438 256.359 97.1562 258.297 94.7812C260.266 92.4062 261.688 90.3281 262.562 88.5469C263.438 86.7656 264.156 85.8438 264.719 85.7812C265.312 85.75 265.719 86.1719 265.938 87.0469C266.188 87.9219 265.969 89.375 265.281 91.4062C264.594 93.4375 263.625 97.25 262.375 102.844L218.688 102.891C225.406 102.891 228.75 99 228.719 91.2188V49.5C228.75 46.0938 225.844 43.6562 220 42.1875ZM306.391 43.6875L307.094 58.7344C306.219 57.0469 304.844 54.8438 302.969 52.125C301.094 49.375 299.672 47.5625 298.703 46.6875C297.734 45.7812 295.734 45.1562 292.703 44.8125C289.672 44.4375 287.109 44.9375 285.016 46.3125C282.922 47.6875 281.547 49.1875 280.891 50.8125C280.234 52.4062 280.219 54.0312 280.844 55.6875C281.469 57.3438 282.422 58.7344 283.703 59.8594C284.984 60.9531 286.922 62.0469 289.516 63.1406C292.109 64.2344 294.672 65.4688 297.203 66.8438C299.734 68.1875 302.25 69.7031 304.75 71.3906C307.281 73.0781 309.125 75.0938 310.281 77.4375C311.469 79.75 312 82.3125 311.875 85.125C311.75 87.9375 311.328 90.0469 310.609 91.4531C309.891 92.8906 308.844 94.3906 307.469 95.9531C306.125 97.5156 304.156 99.0469 301.562 100.547C299 102.078 295.703 102.734 291.672 102.516C287.672 102.328 284.203 101.078 281.266 98.7656C278.328 96.4844 276.969 95.0156 277.188 94.3594C277.406 93.7031 278.297 93.875 279.859 94.875C281.422 95.875 282.891 96.7812 284.266 97.5938C285.641 98.4375 287.125 99.0469 288.719 99.4219C290.344 99.7969 292.281 99.8594 294.531 99.6094C296.781 99.3906 298.625 98.7812 300.062 97.7812C301.5 96.7812 302.594 95.6406 303.344 94.3594C304.125 93.0781 304.797 91.4688 305.359 89.5312C305.953 87.625 305.75 85.0938 304.75 81.9375C303.75 78.75 300.734 75.9062 295.703 73.4062C290.672 70.875 286.438 68.2656 283 65.5781C279.562 62.8906 277.562 60.4062 277 58.125C276.438 55.8438 276.422 53.8125 276.953 52.0312C277.484 50.25 278.547 48.4844 280.141 46.7344C281.734 44.9531 283.453 43.6406 285.297 42.7969C287.172 41.9531 289.75 41.6406 293.031 41.8594C296.312 42.0469 298.688 42.8281 300.156 44.2031C301.656 45.5781 302.828 46.3438 303.672 46.5C304.516 46.625 305.422 45.6875 306.391 43.6875ZM340.797 102.703L347.828 93.6094V47.6719C347.922 45.8281 348.688 44.7812 350.125 44.5312C360 44.5312 366.297 48.625 369.016 56.8125L367.047 44.6719C367.078 42.7656 366.156 41.8125 364.281 41.8125H324.484C322.422 41.8125 321.375 42.7656 321.344 44.6719L319.422 56.8594C322.172 48.6406 327.906 44.5312 336.625 44.5312C339.438 44.5312 340.828 45.6094 340.797 47.7656V102.703Z" fill="white"/>
</svg>
