<svg width="144" height="117" viewBox="0 0 144 117" fill="none" xmlns="http://www.w3.org/2000/svg">
<path d="M15.8309 0.759995C16.0229 0.759995 16.1829 0.791996 16.3109 0.855999C16.3109 1.752 16.2789 2.584 16.2149 3.352C16.2149 4.056 16.2469 4.696 16.3109 5.272C16.3109 5.784 16.3749 6.232 16.5029 6.616C16.6309 6.936 16.6309 7.416 16.5029 8.056C16.4389 8.568 16.3749 9.24 16.3109 10.072C16.2469 10.84 16.1829 11.672 16.1189 12.568C16.0549 13.464 16.0229 14.328 16.0229 15.16C16.0229 15.992 16.0869 16.632 16.2149 17.08C16.4069 18.104 16.5349 19.224 16.5989 20.44C16.7269 21.656 16.7269 22.808 16.5989 23.896C16.4069 25.624 16.2469 27.512 16.1189 29.56C15.9909 31.608 15.8629 33.4 15.7349 34.936C15.6069 36.728 15.6069 38.584 15.7349 40.504C15.9269 42.36 15.9589 44.216 15.8309 46.072C15.9589 47.352 16.0549 48.664 16.1189 50.008C16.2469 51.288 16.3749 52.568 16.5029 53.848C16.3749 54.936 16.2469 55.992 16.1189 57.016C16.0549 57.976 16.1189 59 16.3109 60.088L16.5989 62.392C16.4709 63.032 16.3749 63.672 16.3109 64.312C16.3109 64.952 16.2469 65.592 16.1189 66.232C15.9909 67.512 15.9269 68.824 15.9269 70.168C15.9909 71.512 15.9589 72.728 15.8309 73.816C15.7669 74.328 15.7669 74.936 15.8309 75.64C15.9589 76.344 15.8949 76.952 15.6389 77.464C15.7669 78.168 15.8309 79 15.8309 79.96C15.8309 80.92 15.7669 81.912 15.6389 82.936C15.5749 83.96 15.4469 84.952 15.2549 85.912C15.1269 86.872 14.9989 87.736 14.8709 88.504C14.9349 90.104 14.9669 91.672 14.9669 93.208C14.9669 94.808 14.9989 96.44 15.0629 98.104C15.1269 98.808 15.0949 99.576 14.9669 100.408C14.9029 101.24 14.8069 101.912 14.6789 102.424C14.7429 102.936 14.7749 103.448 14.7749 103.96C14.7749 104.472 14.8069 104.984 14.8709 105.496C14.7429 107.096 14.6469 108.664 14.5829 110.2C14.5829 111.8 14.5189 113.4 14.3909 115C14.3269 115 14.2629 115.032 14.1989 115.096C14.1989 113.368 14.1669 111.544 14.1029 109.624C14.0389 107.768 13.8469 106.104 13.5269 104.632C13.5269 103.416 13.4949 102.232 13.4309 101.08C13.4309 99.928 13.4309 98.744 13.4309 97.528C13.3029 96.824 13.1429 95.928 12.9509 94.84C12.7589 93.816 12.7269 92.856 12.8549 91.96C13.0469 90.936 13.1109 89.752 13.0469 88.408C13.0469 87.064 13.1109 85.784 13.2389 84.568C13.3029 83.736 13.3989 82.936 13.5269 82.168C13.7189 81.4 13.8789 80.632 14.0069 79.864C13.8789 79.288 13.7829 78.712 13.7189 78.136C13.7189 77.56 13.6549 76.984 13.5269 76.408C13.4629 75.96 13.4629 75.448 13.5269 74.872C13.6549 74.232 13.6549 73.624 13.5269 73.048C13.3989 71.768 13.4949 70.36 13.8149 68.824C14.1989 67.224 14.1989 65.656 13.8149 64.12C13.6869 63.544 13.5269 62.872 13.3349 62.104C13.2069 61.272 13.0149 60.504 12.7589 59.8C12.6309 59.48 12.4709 59.192 12.2789 58.936C12.1509 58.616 12.0229 58.296 11.8949 57.976C11.8309 57.592 11.7989 57.208 11.7989 56.824C11.8629 56.44 11.7989 56.088 11.6069 55.768C11.2869 55.32 10.8709 55.064 10.3589 55C9.91088 54.872 9.52688 54.456 9.20688 53.752C9.07888 53.368 9.01488 52.984 9.01488 52.6C9.07888 52.216 9.14288 51.864 9.20688 51.544C9.33488 51.16 9.43088 50.808 9.49488 50.488C9.55888 50.168 9.49488 49.848 9.30288 49.528C8.98288 49.016 8.63088 48.504 8.24688 47.992C7.86288 47.416 7.51088 46.872 7.19088 46.36C7.06288 46.04 6.99888 45.592 6.99888 45.016C6.99888 44.44 6.93488 43.96 6.80688 43.576L6.13488 42.904C5.75088 41.816 5.46288 40.76 5.27088 39.736C5.07888 38.712 4.53488 37.88 3.63888 37.24H3.54288C3.47888 37.496 3.38288 37.688 3.25488 37.816C3.19088 37.944 3.15888 38.104 3.15888 38.296C3.22288 38.744 3.28688 39.192 3.35088 39.64C3.41488 40.024 3.47888 40.44 3.54288 40.888C3.54288 41.08 3.54288 41.4 3.54288 41.848C3.60688 42.232 3.63888 42.648 3.63888 43.096C3.63888 43.544 3.63888 43.96 3.63888 44.344C3.63888 44.728 3.63888 45.016 3.63888 45.208C3.44688 46.296 3.28688 47.512 3.15888 48.856C3.03088 50.136 3.06288 51.384 3.25488 52.6C3.38288 53.24 3.47888 53.88 3.54288 54.52C3.67088 55.096 3.79888 55.736 3.92688 56.44C3.86288 57.4 3.79888 58.296 3.73488 59.128C3.67088 59.896 3.60688 60.664 3.54288 61.432C3.54288 61.944 3.54288 62.456 3.54288 62.968C3.60688 63.48 3.63888 63.992 3.63888 64.504C3.51088 65.528 3.31888 66.648 3.06288 67.864C2.80688 69.08 2.64688 70.168 2.58288 71.128C2.71088 71.512 2.80688 71.896 2.87088 72.28C2.93488 72.664 3.03088 73.016 3.15888 73.336C3.28688 74.68 3.28688 76.152 3.15888 77.752C3.09488 79.288 2.93488 80.568 2.67888 81.592C2.74288 81.912 2.77488 82.264 2.77488 82.648C2.83888 83.032 2.87088 83.416 2.87088 83.8C2.67888 84.888 2.58288 86.136 2.58288 87.544C2.58288 88.952 2.64688 90.104 2.77488 91C2.90288 91.512 2.90288 92.248 2.77488 93.208C2.64688 94.232 2.45488 94.808 2.19888 94.936C2.19888 92.696 2.13488 90.68 2.00688 88.888C1.94288 87.096 1.75088 85.208 1.43088 83.224C1.55888 82.84 1.62288 82.456 1.62288 82.072C1.68688 81.688 1.78288 81.304 1.91088 80.92C1.78288 79.896 1.68688 78.936 1.62288 78.04C1.62288 77.144 1.49488 76.216 1.23888 75.256C1.30288 75 1.33488 74.744 1.33488 74.488C1.33488 74.232 1.36688 73.976 1.43088 73.72L0.854875 72.856C0.662875 72.152 0.630875 71.32 0.758875 70.36C0.886875 69.336 1.01488 68.632 1.14288 68.248V64.504C1.27088 63.8 1.36688 62.968 1.43088 62.008C1.49488 60.984 1.46288 59.992 1.33488 59.032C1.27088 57.88 1.17488 56.664 1.04688 55.384C0.982875 54.04 0.918875 52.696 0.854875 51.352C0.790875 49.944 0.758875 48.568 0.758875 47.224C0.758875 45.816 0.854875 44.504 1.04688 43.288C0.918875 42.392 0.822875 41.496 0.758875 40.6C0.694875 39.704 0.630875 38.808 0.566875 37.912C0.886875 35.992 1.14288 33.976 1.33488 31.864C1.52688 29.752 1.75088 27.832 2.00688 26.104C2.19888 24.952 2.26288 23.928 2.19888 23.032C2.13488 22.136 2.03888 21.176 1.91088 20.152C1.84688 19.256 1.81488 18.328 1.81488 17.368C1.81488 16.408 1.81488 15.48 1.81488 14.584C1.75088 14.328 1.71888 13.944 1.71888 13.432C1.71888 12.92 1.71888 12.408 1.71888 11.896C1.78288 11.384 1.84688 10.936 1.91088 10.552C1.97488 10.168 2.07088 9.944 2.19888 9.88V9.976C2.39088 10.36 2.45488 10.712 2.39088 11.032C2.32688 11.352 2.35888 11.768 2.48688 12.28C2.61488 13.688 2.74288 15.064 2.87088 16.408C2.99888 17.752 3.12688 19.128 3.25488 20.536C3.63888 22.072 3.99088 23.64 4.31088 25.24C4.69488 26.84 5.11088 28.376 5.55888 29.848C6.19888 31.448 6.83888 33.016 7.47888 34.552C8.11888 36.088 8.75888 37.656 9.39888 39.256C10.1029 40.92 10.6789 42.552 11.1269 44.152C11.6389 45.688 12.4069 47.096 13.4309 48.376C13.4949 48.376 13.5589 48.344 13.6229 48.28C13.4949 44.504 13.4629 40.536 13.5269 36.376C13.5909 32.152 13.9109 27.992 14.4869 23.896V19.192C14.9989 16.184 15.3509 13.144 15.5429 10.072C15.7349 7 15.8309 3.896 15.8309 0.759995ZM14.8296 12.952C15.2776 13.272 15.9496 13.688 16.8456 14.2C17.6776 14.712 18.3176 15.064 18.7656 15.256C19.6616 15.32 20.5576 15.384 21.4536 15.448C22.3496 15.448 23.2456 15.48 24.1416 15.544C25.6136 15.864 27.3096 16.184 29.2296 16.504C31.2136 16.76 33.0056 16.824 34.6056 16.696C35.8216 16.568 37.1336 16.632 38.5416 16.888C39.9496 17.08 41.1976 16.888 42.2856 16.312C42.3496 16.376 42.3816 16.44 42.3816 16.504C42.4456 16.824 42.4136 17.144 42.2856 17.464C42.1576 17.72 42.1576 18.008 42.2856 18.328C42.4136 18.584 42.5096 18.808 42.5736 19C42.7016 19.192 42.8296 19.416 42.9576 19.672C42.6376 20.184 42.5096 20.664 42.5736 21.112C42.6376 21.496 42.5416 21.816 42.2856 22.072C42.4776 22.328 42.6376 22.584 42.7656 22.84C42.9576 23.032 43.1176 23.256 43.2456 23.512C43.6936 24.536 43.8856 25.656 43.8216 26.872C43.7576 28.024 43.7896 29.08 43.9176 30.04C43.7896 29.976 43.7256 29.944 43.7256 29.944C43.5336 28.92 43.3096 27.768 43.0536 26.488C42.7976 25.144 42.4136 24.088 41.9016 23.32C41.4536 23 41.0056 22.68 40.5576 22.36C40.1736 21.976 39.7896 21.624 39.4056 21.304C39.1496 20.92 38.9896 20.6 38.9256 20.344C38.9256 20.088 38.7336 19.864 38.3496 19.672C38.0936 19.608 37.8376 19.64 37.5816 19.768C37.3896 19.896 37.1656 19.992 36.9096 20.056C36.5896 19.992 36.2696 19.96 35.9496 19.96C35.6936 19.896 35.4056 19.832 35.0856 19.768C34.3816 19.64 33.6136 19.672 32.7816 19.864C32.0136 20.056 31.3736 20.216 30.8616 20.344C30.4776 20.28 30.0936 20.248 29.7096 20.248C29.3256 20.184 28.9096 20.12 28.4616 20.056C27.8856 20.248 27.5016 20.472 27.3096 20.728C27.1816 20.984 27.0856 21.272 27.0216 21.592C27.0216 21.912 27.0216 22.296 27.0216 22.744C27.0216 23.128 26.8936 23.544 26.6376 23.992C26.5096 24.184 26.3496 24.376 26.1576 24.568C25.9656 24.696 25.9016 24.952 25.9656 25.336C26.0296 25.656 26.1576 25.976 26.3496 26.296C26.6056 26.552 26.8296 26.808 27.0216 27.064C27.9176 27.32 29.0696 27.448 30.4776 27.448C31.9496 27.448 33.1656 27.416 34.1256 27.352C34.8936 27.288 35.6616 27.16 36.4296 26.968C37.1976 26.776 38.0296 26.84 38.9256 27.16C40.0136 27.544 40.9096 28.248 41.6136 29.272C42.3816 30.232 43.0536 31.16 43.6296 32.056C43.5656 32.12 43.5336 32.152 43.5336 32.152C42.8936 31.704 42.3176 31.096 41.8056 30.328C41.2936 29.56 40.6216 29.048 39.7896 28.792C38.5096 28.536 37.1016 28.6 35.5656 28.984C34.0936 29.368 32.7496 29.592 31.5336 29.656C31.2136 29.656 30.7656 29.656 30.1896 29.656C29.6136 29.656 29.0056 29.656 28.3656 29.656C27.7896 29.656 27.2456 29.688 26.7336 29.752C26.2216 29.752 25.8696 29.816 25.6776 29.944C25.4856 30.52 25.4536 31.032 25.5816 31.48C25.7736 31.928 25.9336 32.344 26.0616 32.728L25.7736 33.88C25.9016 34.072 25.9656 34.296 25.9656 34.552C26.0296 34.744 26.0936 34.936 26.1576 35.128C26.1576 35.192 26.1576 35.448 26.1576 35.896C26.1576 36.28 26.1256 36.728 26.0616 37.24C26.0616 37.688 26.0296 38.168 25.9656 38.68C25.9016 39.128 25.8696 39.416 25.8696 39.544C25.8056 40.376 25.7416 41.272 25.6776 42.232C25.6136 43.128 25.4856 43.96 25.2936 44.728C25.4216 45.112 25.4856 45.496 25.4856 45.88C25.5496 46.2 25.6136 46.552 25.6776 46.936C25.1656 49.368 24.7816 52.056 24.5256 55C24.2696 57.88 24.5896 60.76 25.4856 63.64C26.7016 63.768 27.9176 63.832 29.1336 63.832C30.4136 63.832 31.6296 63.992 32.7816 64.312C33.4856 64.44 34.1896 64.408 34.8936 64.216C35.5976 63.96 36.3976 63.96 37.2936 64.216C38.3816 64.536 39.3096 65.08 40.0776 65.848C40.9096 66.552 41.5816 67.416 42.0936 68.44C42.6696 69.464 43.1176 70.552 43.4376 71.704C43.8216 72.856 44.1096 73.976 44.3016 75.064C44.2376 75.064 44.1416 75 44.0136 74.872C43.8216 74.296 43.6616 73.688 43.5336 73.048C43.4696 72.408 43.3096 71.8 43.0536 71.224C42.1576 69.304 40.6856 67.992 38.6376 67.288C36.5896 66.52 34.5096 66.296 32.3976 66.616C32.0136 66.68 31.5976 66.68 31.1496 66.616C30.7016 66.488 30.2536 66.392 29.8056 66.328C29.3576 66.264 28.9096 66.232 28.4616 66.232C28.0136 66.168 27.6296 66.232 27.3096 66.424C26.7976 66.296 26.3496 66.264 25.9656 66.328C25.5816 66.328 25.1656 66.264 24.7176 66.136C24.3976 66.008 24.0456 65.88 23.6616 65.752C23.3416 65.624 23.0216 65.496 22.7016 65.368C22.5096 65.56 22.3176 65.752 22.1256 65.944C21.9336 66.072 21.7096 66.2 21.4536 66.328C21.4536 66.264 21.4216 66.232 21.3576 66.232C21.4856 65.272 21.7096 64.632 22.0296 64.312C22.3496 63.928 22.6696 63.416 22.9896 62.776C22.4776 61.112 22.2856 59.576 22.4136 58.168C22.6056 56.696 22.6696 55.128 22.6056 53.464C22.5416 53.208 22.4456 52.856 22.3176 52.408C22.2536 51.896 22.2856 51.512 22.4136 51.256C22.4776 51.128 22.5416 51 22.6056 50.872C22.7336 50.68 22.8296 50.488 22.8936 50.296C22.8296 49.976 22.7336 49.56 22.6056 49.048C22.5416 48.152 22.5416 47.128 22.6056 45.976C22.6696 44.76 22.7656 43.736 22.8936 42.904C22.8936 42.584 22.8616 42.296 22.7976 42.04C22.7976 41.784 22.7976 41.496 22.7976 41.176C23.0536 40.408 23.2136 39.48 23.2776 38.392C23.4056 37.304 23.4376 36.216 23.3736 35.128C23.3096 33.976 23.1816 32.888 22.9896 31.864C22.8616 30.776 22.7016 29.816 22.5096 28.984L17.6136 28.408V27.928C17.8696 27.864 18.0936 27.768 18.2856 27.64C18.4776 27.512 18.6376 27.416 18.7656 27.352C19.1496 27.224 19.4696 27.192 19.7256 27.256C20.0456 27.256 20.3336 27.288 20.5896 27.352C20.8456 27.416 21.1016 27.448 21.3576 27.448C21.6136 27.448 21.9016 27.352 22.2216 27.16H22.4136C22.4136 26.072 22.3176 24.952 22.1256 23.8C21.9976 22.648 21.9656 21.592 22.0296 20.632C22.0936 19.928 22.2216 19.416 22.4136 19.096C22.6696 18.712 22.7336 18.2 22.6056 17.56C22.1576 17.432 21.4856 17.208 20.5896 16.888C19.6936 16.504 18.7976 16.088 17.9016 15.64C17.0696 15.192 16.3336 14.744 15.6936 14.296C15.0536 13.784 14.7656 13.336 14.8296 12.952ZM43.7451 2.392C44.2571 2.776 44.5131 3.48 44.5131 4.504C44.4491 5.464 44.4811 6.328 44.6091 7.096C44.7371 7.608 44.8971 8.27999 45.0891 9.112C45.3451 9.944 45.5371 10.712 45.6651 11.416C45.9851 12.888 46.0811 14.296 45.9531 15.64C45.8891 16.984 46.0491 18.264 46.4331 19.48C46.9451 21.144 47.2971 22.968 47.4891 24.952C47.6811 26.872 47.8731 28.76 48.0651 30.616C48.1291 31.32 48.0971 31.96 47.9691 32.536C47.9051 33.112 47.9371 33.752 48.0651 34.456C48.2571 35.48 48.4171 36.664 48.5451 38.008C48.7371 39.288 48.9931 40.408 49.3131 41.368C49.6331 42.264 49.8891 43.128 50.0811 43.96C50.3371 44.728 50.6251 45.56 50.9451 46.456C51.0731 46.776 51.0731 47.224 50.9451 47.8C50.8171 48.376 50.6891 48.824 50.5611 49.144V54.328C50.8811 55.48 51.1691 56.632 51.4251 57.784C51.7451 58.936 52.0651 60.056 52.3851 61.144C52.5131 61.528 52.7051 61.88 52.9611 62.2C53.2171 62.52 53.4091 62.904 53.5371 63.352C53.7931 64.248 53.7931 65.304 53.5371 66.52C53.3451 67.736 53.3131 68.728 53.4411 69.496C53.5051 69.496 53.5691 69.464 53.6331 69.4C53.6971 69.208 53.6971 68.952 53.6331 68.632C53.6331 68.312 53.6971 67.992 53.8251 67.672C53.9531 67.288 54.1771 67.032 54.4971 66.904C54.8171 66.712 55.0411 66.456 55.1691 66.136C55.4251 65.24 55.5851 64.28 55.6491 63.256C55.7131 62.168 55.8731 61.144 56.1291 60.184C56.1931 60.056 56.2251 59.736 56.2251 59.224C56.2251 58.712 56.2251 58.168 56.2251 57.592C56.2251 57.016 56.2251 56.44 56.2251 55.864C56.2251 55.224 56.2571 54.744 56.3211 54.424C57.4091 50.072 58.2731 45.816 58.9131 41.656C59.5531 37.432 60.3211 33.208 61.2171 28.984C61.2811 28.472 61.3131 27.992 61.3131 27.544C61.3131 27.096 61.3451 26.616 61.4091 26.104C61.9211 24.504 62.3371 22.776 62.6571 20.92C63.0411 19.064 63.4251 17.4 63.8091 15.928C63.8731 15.608 63.9051 15.064 63.9051 14.296C63.9051 13.464 64.0011 12.856 64.1931 12.472C64.1931 12.536 64.1931 12.6 64.1931 12.664C64.2571 12.664 64.2891 12.696 64.2891 12.76C63.8411 14.808 63.6171 16.792 63.6171 18.712C63.6171 20.632 63.4571 22.616 63.1371 24.664C62.8171 26.84 62.5291 29.016 62.2731 31.192C62.0811 33.304 61.7931 35.384 61.4091 37.432C61.2171 38.456 61.1851 39.416 61.3131 40.312C61.4411 41.144 61.3771 42.104 61.1211 43.192C60.4171 46.456 59.7771 49.848 59.2011 53.368C58.6251 56.824 58.3371 60.12 58.3371 63.256C58.3371 63.704 58.2091 64.12 57.9531 64.504C57.7611 64.888 57.6011 65.272 57.4731 65.656C57.4091 66.232 57.3451 66.84 57.2811 67.48C57.2811 68.056 57.2171 68.696 57.0891 69.4C56.9611 69.72 56.8011 70.104 56.6091 70.552C56.4811 70.936 56.3851 71.288 56.3211 71.608C56.3211 72.312 56.2891 72.984 56.2251 73.624C56.2251 74.2 56.2251 74.84 56.2251 75.544C55.3931 78.296 54.8491 81.176 54.5931 84.184C54.3371 87.256 54.0491 90.2 53.7291 93.016C53.6651 93.848 53.6331 94.648 53.6331 95.416C53.6331 96.184 53.6011 96.952 53.5371 97.72C53.6651 98.616 53.8571 99.608 54.1131 100.696C54.4331 101.848 54.5291 102.872 54.4011 103.768C54.2731 104.536 54.1131 105.272 53.9211 105.976C53.7291 106.68 53.5371 107.384 53.3451 108.088C53.4091 108.344 53.4411 108.696 53.4411 109.144C53.2491 110.488 53.1531 111.736 53.1531 112.888C53.1531 114.104 53.1851 115.448 53.2491 116.92C53.1211 116.92 53.0251 116.888 52.9611 116.824C52.9611 116.056 52.8971 115.384 52.7691 114.808C52.7051 114.296 52.6091 113.688 52.4811 112.984C52.3531 112.344 52.3211 111.48 52.3851 110.392C52.4491 109.368 52.5131 108.6 52.5771 108.088C52.7051 107.384 52.7371 106.584 52.6731 105.688C52.6731 104.792 52.6091 103.896 52.4811 103C52.3531 102.104 52.1931 101.24 52.0011 100.408C51.8091 99.64 51.6171 99.032 51.4251 98.584C51.2331 98.072 51.2011 97.336 51.3291 96.376C51.4571 95.416 51.5211 94.776 51.5211 94.456V88.504C51.3291 87.48 51.1371 86.456 50.9451 85.432C50.8171 84.408 50.6891 83.384 50.5611 82.36C50.5611 81.272 50.5611 80.184 50.5611 79.096C50.5611 78.008 50.5291 76.92 50.4651 75.832C50.2731 73.592 49.9531 71.416 49.5051 69.304C49.0571 67.192 48.6731 65.208 48.3531 63.352C48.0971 61.944 47.9371 60.6 47.8731 59.32C47.8091 57.976 47.6171 56.76 47.2971 55.672V53.08C47.1691 51.544 47.1691 50.072 47.2971 48.664C47.4891 47.256 47.4571 45.688 47.2011 43.96C46.9451 42.296 46.6571 40.536 46.3371 38.68C46.0171 36.76 45.6971 34.936 45.3771 33.208C45.4411 32.312 45.4731 31.48 45.4731 30.712C45.5371 29.88 45.5691 29.048 45.5691 28.216C45.5051 27.384 45.4411 26.584 45.3771 25.816C45.3131 25.048 45.2491 24.248 45.1851 23.416C45.2491 22.904 45.3451 22.392 45.4731 21.88C45.6011 21.368 45.6331 20.824 45.5691 20.248C45.2491 17.432 44.9611 14.424 44.7051 11.224C44.3851 7.96 44.0651 5.016 43.7451 2.392ZM61.3296 12.952C61.7776 13.272 62.4496 13.688 63.3456 14.2C64.1776 14.712 64.8176 15.064 65.2656 15.256C66.1616 15.32 67.0576 15.384 67.9536 15.448C68.8496 15.448 69.7456 15.48 70.6416 15.544C72.1136 15.864 73.8096 16.184 75.7296 16.504C77.7136 16.76 79.5056 16.824 81.1056 16.696C82.3216 16.568 83.6336 16.632 85.0416 16.888C86.4496 17.08 87.6976 16.888 88.7856 16.312C88.8496 16.376 88.8816 16.44 88.8816 16.504C88.9456 16.824 88.9136 17.144 88.7856 17.464C88.6576 17.72 88.6576 18.008 88.7856 18.328C88.9136 18.584 89.0096 18.808 89.0736 19C89.2016 19.192 89.3296 19.416 89.4576 19.672C89.1376 20.184 89.0096 20.664 89.0736 21.112C89.1376 21.496 89.0416 21.816 88.7856 22.072C88.9776 22.328 89.1376 22.584 89.2656 22.84C89.4576 23.032 89.6176 23.256 89.7456 23.512C90.1936 24.536 90.3856 25.656 90.3216 26.872C90.2576 28.024 90.2896 29.08 90.4176 30.04C90.2896 29.976 90.2256 29.944 90.2256 29.944C90.0336 28.92 89.8096 27.768 89.5536 26.488C89.2976 25.144 88.9136 24.088 88.4016 23.32C87.9536 23 87.5056 22.68 87.0576 22.36C86.6736 21.976 86.2896 21.624 85.9056 21.304C85.6496 20.92 85.4896 20.6 85.4256 20.344C85.4256 20.088 85.2336 19.864 84.8496 19.672C84.5936 19.608 84.3376 19.64 84.0816 19.768C83.8896 19.896 83.6656 19.992 83.4096 20.056C83.0896 19.992 82.7696 19.96 82.4496 19.96C82.1936 19.896 81.9056 19.832 81.5856 19.768C80.8816 19.64 80.1136 19.672 79.2816 19.864C78.5136 20.056 77.8736 20.216 77.3616 20.344C76.9776 20.28 76.5936 20.248 76.2096 20.248C75.8256 20.184 75.4096 20.12 74.9616 20.056C74.3856 20.248 74.0016 20.472 73.8096 20.728C73.6816 20.984 73.5856 21.272 73.5216 21.592C73.5216 21.912 73.5216 22.296 73.5216 22.744C73.5216 23.128 73.3936 23.544 73.1376 23.992C73.0096 24.184 72.8496 24.376 72.6576 24.568C72.4656 24.696 72.4016 24.952 72.4656 25.336C72.5296 25.656 72.6576 25.976 72.8496 26.296C73.1056 26.552 73.3296 26.808 73.5216 27.064C74.4176 27.32 75.5696 27.448 76.9776 27.448C78.4496 27.448 79.6656 27.416 80.6256 27.352C81.3936 27.288 82.1616 27.16 82.9296 26.968C83.6976 26.776 84.5296 26.84 85.4256 27.16C86.5136 27.544 87.4096 28.248 88.1136 29.272C88.8816 30.232 89.5536 31.16 90.1296 32.056C90.0656 32.12 90.0336 32.152 90.0336 32.152C89.3936 31.704 88.8176 31.096 88.3056 30.328C87.7936 29.56 87.1216 29.048 86.2896 28.792C85.0096 28.536 83.6016 28.6 82.0656 28.984C80.5936 29.368 79.2496 29.592 78.0336 29.656C77.7136 29.656 77.2656 29.656 76.6896 29.656C76.1136 29.656 75.5056 29.656 74.8656 29.656C74.2896 29.656 73.7456 29.688 73.2336 29.752C72.7216 29.752 72.3696 29.816 72.1776 29.944C71.9856 30.52 71.9536 31.032 72.0816 31.48C72.2736 31.928 72.4336 32.344 72.5616 32.728L72.2736 33.88C72.4016 34.072 72.4656 34.296 72.4656 34.552C72.5296 34.744 72.5936 34.936 72.6576 35.128C72.6576 35.192 72.6576 35.448 72.6576 35.896C72.6576 36.28 72.6256 36.728 72.5616 37.24C72.5616 37.688 72.5296 38.168 72.4656 38.68C72.4016 39.128 72.3696 39.416 72.3696 39.544C72.3056 40.376 72.2416 41.272 72.1776 42.232C72.1136 43.128 71.9856 43.96 71.7936 44.728C71.9216 45.112 71.9856 45.496 71.9856 45.88C72.0496 46.2 72.1136 46.552 72.1776 46.936C71.6656 49.368 71.2816 52.056 71.0256 55C70.7696 57.88 71.0896 60.76 71.9856 63.64C73.2016 63.768 74.4176 63.832 75.6336 63.832C76.9136 63.832 78.1296 63.992 79.2816 64.312C79.9856 64.44 80.6896 64.408 81.3936 64.216C82.0976 63.96 82.8976 63.96 83.7936 64.216C84.8816 64.536 85.8096 65.08 86.5776 65.848C87.4096 66.552 88.0816 67.416 88.5936 68.44C89.1696 69.464 89.6176 70.552 89.9376 71.704C90.3216 72.856 90.6096 73.976 90.8016 75.064C90.7376 75.064 90.6416 75 90.5136 74.872C90.3216 74.296 90.1616 73.688 90.0336 73.048C89.9696 72.408 89.8096 71.8 89.5536 71.224C88.6576 69.304 87.1856 67.992 85.1376 67.288C83.0896 66.52 81.0096 66.296 78.8976 66.616C78.5136 66.68 78.0976 66.68 77.6496 66.616C77.2016 66.488 76.7536 66.392 76.3056 66.328C75.8576 66.264 75.4096 66.232 74.9616 66.232C74.5136 66.168 74.1296 66.232 73.8096 66.424C73.2976 66.296 72.8496 66.264 72.4656 66.328C72.0816 66.328 71.6656 66.264 71.2176 66.136C70.8976 66.008 70.5456 65.88 70.1616 65.752C69.8416 65.624 69.5216 65.496 69.2016 65.368C69.0096 65.56 68.8176 65.752 68.6256 65.944C68.4336 66.072 68.2096 66.2 67.9536 66.328C67.9536 66.264 67.9216 66.232 67.8576 66.232C67.9856 65.272 68.2096 64.632 68.5296 64.312C68.8496 63.928 69.1696 63.416 69.4896 62.776C68.9776 61.112 68.7856 59.576 68.9136 58.168C69.1056 56.696 69.1696 55.128 69.1056 53.464C69.0416 53.208 68.9456 52.856 68.8176 52.408C68.7536 51.896 68.7856 51.512 68.9136 51.256C68.9776 51.128 69.0416 51 69.1056 50.872C69.2336 50.68 69.3296 50.488 69.3936 50.296C69.3296 49.976 69.2336 49.56 69.1056 49.048C69.0416 48.152 69.0416 47.128 69.1056 45.976C69.1696 44.76 69.2656 43.736 69.3936 42.904C69.3936 42.584 69.3616 42.296 69.2976 42.04C69.2976 41.784 69.2976 41.496 69.2976 41.176C69.5536 40.408 69.7136 39.48 69.7776 38.392C69.9056 37.304 69.9376 36.216 69.8736 35.128C69.8096 33.976 69.6816 32.888 69.4896 31.864C69.3616 30.776 69.2016 29.816 69.0096 28.984L64.1136 28.408V27.928C64.3696 27.864 64.5936 27.768 64.7856 27.64C64.9776 27.512 65.1376 27.416 65.2656 27.352C65.6496 27.224 65.9696 27.192 66.2256 27.256C66.5456 27.256 66.8336 27.288 67.0896 27.352C67.3456 27.416 67.6016 27.448 67.8576 27.448C68.1136 27.448 68.4016 27.352 68.7216 27.16H68.9136C68.9136 26.072 68.8176 24.952 68.6256 23.8C68.4976 22.648 68.4656 21.592 68.5296 20.632C68.5936 19.928 68.7216 19.416 68.9136 19.096C69.1696 18.712 69.2336 18.2 69.1056 17.56C68.6576 17.432 67.9856 17.208 67.0896 16.888C66.1936 16.504 65.2976 16.088 64.4016 15.64C63.5696 15.192 62.8336 14.744 62.1936 14.296C61.5536 13.784 61.2656 13.336 61.3296 12.952ZM98.2131 14.872C99.4931 15.128 100.997 15.48 102.725 15.928C104.517 16.376 105.957 16.952 107.045 17.656C107.557 18.04 107.877 18.712 108.005 19.672C108.197 20.568 108.453 21.336 108.773 21.976C109.093 22.296 109.349 22.616 109.541 22.936C109.797 23.192 110.085 23.48 110.405 23.8C111.045 24.888 111.653 25.944 112.229 26.968C112.805 27.992 113.413 29.016 114.053 30.04C114.373 30.808 114.565 31.8 114.629 33.016C114.757 34.168 114.725 35.352 114.533 36.568C114.341 37.784 114.021 38.904 113.573 39.928C113.189 40.888 112.613 41.528 111.845 41.848C112.037 41.528 112.229 41.176 112.421 40.792C112.613 40.408 112.837 40.024 113.093 39.64C113.413 38.872 113.445 38.168 113.189 37.528C112.933 36.824 112.741 36.152 112.613 35.512C112.485 34.936 112.485 34.488 112.613 34.168C112.741 33.848 112.741 33.528 112.613 33.208C112.549 32.824 112.325 32.312 111.941 31.672C111.621 30.968 111.205 30.264 110.693 29.56C110.245 28.856 109.797 28.184 109.349 27.544C108.901 26.904 108.581 26.456 108.389 26.2C108.005 25.752 107.429 25.464 106.661 25.336C105.957 25.208 105.413 24.888 105.029 24.376C104.709 24.056 104.485 23.64 104.357 23.128C104.293 22.552 104.101 22.104 103.781 21.784C103.397 21.848 103.045 21.784 102.725 21.592C102.405 21.4 102.085 21.208 101.765 21.016C101.509 20.824 101.221 20.696 100.901 20.632C100.645 20.504 100.293 20.568 99.8451 20.824C99.7171 21.528 99.5571 22.04 99.3651 22.36C99.1731 22.68 98.9491 22.936 98.6931 23.128C98.5011 23.32 98.2771 23.512 98.0211 23.704C97.8291 23.832 97.6691 24.088 97.5411 24.472V26.872C97.2211 28.152 96.9331 29.304 96.6771 30.328C96.4211 31.288 96.2611 32.248 96.1971 33.208C96.1331 34.104 96.1971 35.032 96.3891 35.992C96.5811 36.952 96.9331 38.008 97.4451 39.16C97.7651 39.736 98.0211 40.376 98.2131 41.08C98.4051 41.784 98.6611 42.424 98.9811 43C99.1731 43.32 99.5251 43.704 100.037 44.152C100.549 44.6 101.125 45.048 101.765 45.496C102.405 45.944 103.013 46.36 103.589 46.744C104.229 47.064 104.741 47.32 105.125 47.512C105.317 47.576 105.573 47.608 105.893 47.608C106.277 47.608 106.629 47.608 106.949 47.608C107.333 47.608 107.653 47.64 107.909 47.704C108.229 47.768 108.453 47.896 108.581 48.088C109.157 48.472 109.509 49.176 109.637 50.2C109.765 51.16 109.925 52.056 110.117 52.888C110.245 53.208 110.405 53.528 110.597 53.848C110.789 54.168 110.949 54.488 111.077 54.808C111.717 56.344 112.069 58.136 112.133 60.184C112.261 62.168 112.133 63.992 111.749 65.656C111.685 66.04 111.621 66.424 111.557 66.808C111.493 67.192 111.429 67.608 111.365 68.056C111.173 68.184 110.981 68.344 110.789 68.536C110.597 68.728 110.373 68.888 110.117 69.016C109.733 69.4 109.413 69.976 109.157 70.744C108.965 71.512 108.773 72.12 108.581 72.568C108.517 72.888 108.453 73.24 108.389 73.624C108.325 73.944 108.261 74.264 108.197 74.584C107.941 75.48 107.557 76.312 107.045 77.08C106.533 77.848 106.117 78.616 105.797 79.384C105.605 79.832 105.477 80.184 105.413 80.44C105.413 80.76 105.285 81.08 105.029 81.4L103.301 82.552C103.109 82.808 102.917 83.064 102.725 83.32C102.533 83.576 102.309 83.832 102.053 84.088C101.733 84.408 101.349 84.696 100.901 84.952C100.517 85.208 100.165 85.496 99.8451 85.816C99.3331 86.328 98.8531 86.84 98.4051 87.352C98.0211 87.928 97.5731 88.504 97.0611 89.08C96.9331 89.208 96.7731 89.272 96.5811 89.272C96.3891 89.336 96.2291 89.432 96.1011 89.56C95.9731 89.816 95.8131 90.04 95.6211 90.232C95.4931 90.424 95.3651 90.648 95.2371 90.904C94.7891 91.224 94.2771 91.448 93.7011 91.576C93.1251 91.768 92.6451 92.088 92.2611 92.536C90.5971 94.2 89.1891 96.056 88.0371 98.104C86.8211 100.152 85.6691 102.232 84.5811 104.344H84.4851C85.1891 101.592 86.1811 99.16 87.4611 97.048C88.6771 95 90.0211 93.048 91.4931 91.192C92.1331 90.488 92.8371 89.848 93.6051 89.272C94.4371 88.76 95.1731 88.152 95.8131 87.448C96.2611 86.936 96.6771 86.392 97.0611 85.816C97.4451 85.304 97.8611 84.792 98.3091 84.28C99.0771 83.704 99.8451 83.064 100.613 82.36C101.381 81.72 102.053 81.016 102.629 80.248C103.589 79.032 104.293 77.72 104.741 76.312C105.189 74.84 105.669 73.368 106.181 71.896C106.629 70.552 107.205 69.336 107.909 68.248C108.613 67.096 109.125 65.848 109.445 64.504C109.893 62.52 109.861 60.728 109.349 59.128C108.901 57.464 108.197 55.96 107.237 54.616C106.341 53.272 105.285 52.088 104.069 51.064C102.917 49.976 101.829 49.048 100.805 48.28C100.485 47.96 100.101 47.768 99.6531 47.704C99.2691 47.64 98.9171 47.48 98.5971 47.224C98.2771 46.84 97.9891 46.456 97.7331 46.072C97.5411 45.688 97.2851 45.336 96.9651 45.016C96.6451 44.696 96.2611 44.472 95.8131 44.344C95.4291 44.216 95.0771 43.992 94.7571 43.672C94.3091 43.288 94.0531 42.84 93.9891 42.328C93.9251 41.752 93.7651 41.208 93.5091 40.696C93.3811 40.44 93.2211 40.216 93.0291 40.024C92.9011 39.832 92.7731 39.608 92.6451 39.352C92.5811 39.032 92.5491 38.712 92.5491 38.392C92.5491 38.008 92.5171 37.624 92.4531 37.24C92.3251 36.792 92.2291 36.344 92.1651 35.896C92.1651 35.448 92.1011 35 91.9731 34.552C92.1651 33.144 92.3571 31.64 92.5491 30.04C92.7411 28.44 93.0611 26.904 93.5091 25.432C93.6371 24.792 93.7331 24.184 93.7971 23.608C93.8611 22.968 93.9571 22.296 94.0851 21.592C94.2771 21.208 94.5331 20.76 94.8531 20.248C95.1731 19.672 95.4931 19.096 95.8131 18.52C96.1971 17.944 96.4851 17.368 96.6771 16.792C96.9331 16.216 97.0611 15.704 97.0611 15.256C97.5731 15.128 97.9571 15 98.2131 14.872ZM127.294 15.64C127.87 15.704 128.446 15.768 129.022 15.832C129.662 15.832 130.238 15.928 130.75 16.12C131.134 16.12 131.486 16.12 131.806 16.12C132.19 16.056 132.574 15.992 132.958 15.928C133.982 16.312 135.262 16.696 136.798 17.08C138.398 17.464 139.742 17.912 140.83 18.424C141.278 18.552 141.694 18.776 142.078 19.096C142.462 19.416 142.878 19.672 143.326 19.864V20.152C143.262 20.152 143.198 20.184 143.134 20.248C143.134 20.248 143.102 20.248 143.038 20.248C141.694 19.416 140.158 18.936 138.43 18.808C136.702 18.68 134.974 18.712 133.246 18.904C132.798 18.968 132.35 18.904 131.902 18.712C131.518 18.52 131.102 18.36 130.654 18.232C130.27 18.04 129.854 17.944 129.406 17.944C129.022 17.944 128.606 18.168 128.158 18.616C128.222 18.872 128.254 19.096 128.254 19.288C128.254 19.48 128.286 19.672 128.35 19.864C128.286 20.184 128.126 20.472 127.87 20.728C127.678 20.984 127.518 21.304 127.39 21.688C127.454 22.072 127.486 22.456 127.486 22.84C127.55 23.224 127.614 23.64 127.678 24.088C127.614 24.408 127.486 24.728 127.294 25.048C127.166 25.368 127.07 25.656 127.006 25.912C126.878 26.232 126.814 26.584 126.814 26.968C126.878 27.352 126.878 27.672 126.814 27.928C126.75 28.248 126.782 28.6 126.91 28.984C127.038 29.304 127.166 29.592 127.294 29.848C127.422 30.296 127.358 30.744 127.102 31.192C126.91 31.576 126.814 31.96 126.814 32.344V38.008C126.878 38.328 126.942 38.616 127.006 38.872C127.07 39.064 127.07 39.384 127.006 39.832C126.814 40.92 126.686 42.2 126.622 43.672C126.558 45.08 126.558 46.328 126.622 47.416L126.334 50.872C126.462 52.152 126.558 53.464 126.622 54.808C126.686 56.088 126.75 57.368 126.814 58.648C126.75 59.224 126.686 59.8 126.622 60.376C126.622 60.952 126.59 61.56 126.526 62.2C126.526 62.712 126.526 63.256 126.526 63.832C126.59 64.408 126.654 64.952 126.718 65.464C126.59 65.784 126.494 66.136 126.43 66.52C126.366 66.84 126.302 67.16 126.238 67.48C126.11 68.312 126.238 69.08 126.622 69.784C127.006 70.424 127.134 71.192 127.006 72.088C126.942 72.216 126.91 72.536 126.91 73.048C126.974 73.496 126.942 73.88 126.814 74.2C126.878 74.328 126.942 74.648 127.006 75.16C127.134 75.608 127.134 75.992 127.006 76.312C126.942 76.76 126.878 77.208 126.814 77.656C126.75 78.04 126.654 78.456 126.526 78.904C126.846 81.208 126.974 83.48 126.91 85.72C126.846 87.96 126.974 90.2 127.294 92.44C127.358 92.76 127.422 93.176 127.486 93.688C127.55 94.264 127.582 94.808 127.582 95.32C127.646 95.896 127.678 96.408 127.678 96.856C127.678 97.304 127.646 97.56 127.582 97.624C127.582 96.92 127.486 96.248 127.294 95.608C127.102 94.968 126.942 94.392 126.814 93.88V92.344C126.622 91.32 126.398 90.264 126.142 89.176C125.95 88.088 125.758 87.096 125.566 86.2C125.438 84.984 125.31 83.8 125.182 82.648C125.118 81.496 125.022 80.344 124.894 79.192C124.958 78.552 124.99 77.944 124.99 77.368C124.99 76.792 125.022 76.216 125.086 75.64L124.51 73.048C124.318 70.936 124.318 68.824 124.51 66.712C124.702 64.6 124.958 62.552 125.278 60.568C125.214 59.736 125.15 58.936 125.086 58.168C125.022 57.336 124.958 56.504 124.894 55.672C124.766 54.584 124.734 53.4 124.798 52.12C124.862 50.84 124.83 49.656 124.702 48.568C124.766 47.736 124.798 46.904 124.798 46.072C124.798 45.24 124.83 44.408 124.894 43.576C124.83 42.104 124.798 40.664 124.798 39.256C124.798 37.848 124.798 36.408 124.798 34.936C124.734 34.424 124.67 33.976 124.606 33.592C124.606 33.144 124.574 32.664 124.51 32.152L123.934 30.424C123.87 29.912 123.838 29.4 123.838 28.888C123.902 28.376 123.87 27.896 123.742 27.448C123.614 27.128 123.454 26.776 123.262 26.392C123.07 26.008 122.91 25.656 122.782 25.336C122.654 25.016 122.654 24.76 122.782 24.568C122.974 24.312 123.102 24.088 123.166 23.896C123.358 23 123.358 22.232 123.166 21.592C122.974 20.888 122.654 20.248 122.206 19.672C121.886 19.224 121.342 19.032 120.574 19.096C119.87 19.16 119.166 19.256 118.462 19.384C117.438 19.576 116.254 19.704 114.91 19.768C113.566 19.768 112.446 19.672 111.55 19.48C111.102 19.416 110.558 19.512 109.918 19.768C109.214 20.024 108.67 19.96 108.286 19.576C108.286 19.512 108.318 19.448 108.382 19.384C108.894 19.384 109.278 19.352 109.534 19.288C109.79 19.16 110.078 19.032 110.398 18.904H112.51C113.854 18.584 115.294 18.264 116.83 17.944C118.43 17.624 119.87 17.304 121.15 16.984C121.534 16.856 122.046 16.76 122.686 16.696C123.326 16.568 123.934 16.472 124.51 16.408C125.15 16.28 125.726 16.184 126.238 16.12C126.75 15.992 127.102 15.832 127.294 15.64Z" fill="white"/>
</svg>
