<svg width="198" height="52" viewBox="0 0 198 52" fill="none" xmlns="http://www.w3.org/2000/svg">
<path d="M9.875 48.875C9.875 49.7083 9.60417 50.3542 9.0625 50.8125C8.52083 51.2708 7.95833 51.5 7.375 51.5C6.79167 51.5 6.22917 51.2917 5.6875 50.875C5.14583 50.5 4.83333 49.8958 4.75 49.0625C4.58333 47.1458 4.39583 45.2292 4.1875 43.3125C3.97917 41.4375 3.66667 39.5417 3.25 37.625L3 36.5C3 36.2917 2.95833 36.0833 2.875 35.875C2.83333 35.6667 2.8125 35.4583 2.8125 35.25L1.125 26C1.08333 25.6667 1 25.1667 0.875 24.5C0.791667 23.8333 0.6875 23.0833 0.5625 22.25C0.4375 21.4167 0.3125 20.5417 0.1875 19.625C0.104167 18.6667 0.0625 17.75 0.0625 16.875C0.0625 15.75 0.270833 14.9375 0.6875 14.4375C1.10417 13.8958 1.60417 13.5417 2.1875 13.375C2.8125 13.1667 3.4375 13.0833 4.0625 13.125C4.72917 13.125 5.29167 13.125 5.75 13.125C7.45833 13.1667 9.14583 13.4792 10.8125 14.0625C12.5208 14.6042 14.0417 15.4167 15.375 16.5C16.7083 17.5833 17.7708 18.9375 18.5625 20.5625C19.3958 22.1875 19.8125 24.0833 19.8125 26.25C19.8125 29.375 18.8333 32.0417 16.875 34.25C14.9583 36.4167 12.1458 37.7083 8.4375 38.125C8.77083 39.7917 9.04167 41.5208 9.25 43.3125C9.5 45.1042 9.70833 46.9583 9.875 48.875ZM7.5 32.9375L9.25 32.8125C10.8333 32.7292 12.1458 32.1042 13.1875 30.9375C14.2292 29.7292 14.75 28.125 14.75 26.125C14.75 24.9167 14.5208 23.8333 14.0625 22.875C13.6042 21.9167 12.9792 21.1042 12.1875 20.4375C11.4375 19.7292 10.5208 19.1875 9.4375 18.8125C8.35417 18.4375 7.1875 18.25 5.9375 18.25H5.4375C5.5625 18.625 5.64583 19.0833 5.6875 19.625C5.72917 20.125 5.77083 20.6875 5.8125 21.3125C5.85417 21.8958 5.89583 22.5208 5.9375 23.1875C5.97917 23.8125 6.04167 24.4375 6.125 25.0625C6.33333 26.4792 6.5625 27.8542 6.8125 29.1875C7.0625 30.4792 7.29167 31.7292 7.5 32.9375ZM27.3125 35.1875C27.3125 34.0625 27.3333 32.8958 27.375 31.6875C27.4583 30.4792 27.6042 29.3333 27.8125 28.25L28.25 23.625L28.8125 20.25C28.9375 19.7083 29 19.2083 29 18.75C29 18.25 28.8958 17.7292 28.6875 17.1875C28.5208 16.6458 28.0417 16.375 27.25 16.375C26.9167 16.375 26.5833 16.2917 26.25 16.125C25.9583 15.9167 25.6875 15.6875 25.4375 15.4375C25.1875 15.1458 24.9792 14.8542 24.8125 14.5625C24.6875 14.2708 24.625 14 24.625 13.75C24.625 13.25 24.875 12.7083 25.375 12.125C25.875 11.5417 26.5625 11.25 27.4375 11.25C29.6042 11.4583 31.1875 12.0625 32.1875 13.0625C33.1875 14.0625 33.6875 15.2917 33.6875 16.75C34.9375 15.875 36.3958 15.2292 38.0625 14.8125C39.7292 14.3542 41.7083 14.0417 44 13.875C44.9167 13.875 45.625 14.125 46.125 14.625C46.625 15.0833 46.875 15.6667 46.875 16.375C46.875 17 46.6667 17.5625 46.25 18.0625C45.8333 18.5208 45.2708 18.8125 44.5625 18.9375C42.6458 19.0625 41.0208 19.2708 39.6875 19.5625C38.3542 19.8542 37.2292 20.3333 36.3125 21C35.3958 21.625 34.6875 22.4792 34.1875 23.5625C33.6875 24.6458 33.3125 26.0417 33.0625 27.75L32.875 28.6875V31.25C32.8333 31.875 32.7917 32.5208 32.75 33.1875C32.75 33.8125 32.7083 34.4583 32.625 35.125L32.4375 36.25L32.0625 37.25C31.3958 38.0417 30.625 38.4375 29.75 38.4375C28.25 38.4375 27.4375 37.5625 27.3125 35.8125V35.1875ZM55.375 13.875C54.7917 13.2083 54.5 12.5625 54.5 11.9375C54.5 11.2292 54.7083 10.625 55.125 10.125C55.5833 9.625 56.1667 9.375 56.875 9.375C57.4167 9.375 57.9583 9.54167 58.5 9.875C59.0417 10.1667 59.5417 10.5417 60 11C60.4583 11.4167 60.8542 11.8333 61.1875 12.25C61.5208 12.6667 61.7292 12.9583 61.8125 13.125C61.8958 13.0833 62.0833 13.0625 62.375 13.0625C63.1667 13.0625 63.9167 13.2708 64.625 13.6875C65.375 14.0625 66.0417 14.5625 66.625 15.1875C67.25 15.8125 67.7917 16.4792 68.25 17.1875C68.7083 17.8958 69.1042 18.5625 69.4375 19.1875C69.7708 19.8125 70.0625 20.5 70.3125 21.25C70.6042 21.9583 70.8333 22.6875 71 23.4375C71.1667 24.1875 71.2917 24.9167 71.375 25.625C71.4583 26.3333 71.5 26.9792 71.5 27.5625C71.5 29.2708 71.2708 30.875 70.8125 32.375C70.3958 33.8333 69.6875 35.125 68.6875 36.25C67.7292 37.375 66.4583 38.25 64.875 38.875C63.2917 39.5417 61.3542 39.875 59.0625 39.875C57.3958 39.875 56.0208 39.375 54.9375 38.375C53.8958 37.375 53.0833 36.2083 52.5 34.875C51.9167 33.5 51.5 32.1042 51.25 30.6875C51.0417 29.2708 50.9375 28.125 50.9375 27.25C50.9375 26.4167 51.0417 25.6042 51.25 24.8125C51.4583 24.0208 51.7292 23.2917 52.0625 22.625C52.3958 21.9167 52.7292 21.2917 53.0625 20.75C53.4375 20.2083 53.7917 19.75 54.125 19.375L57.25 15.6875C57.2083 15.5208 57.0625 15.3333 56.8125 15.125C56.6042 14.875 56.3958 14.6458 56.1875 14.4375L55.375 13.875ZM61.6875 17.875L61.4375 18.25C60.9375 18.875 60.375 19.5208 59.75 20.1875C59.1667 20.8542 58.6042 21.5417 58.0625 22.25C57.5208 22.9583 57.0625 23.7292 56.6875 24.5625C56.3125 25.3958 56.125 26.3125 56.125 27.3125C56.125 28.2292 56.1875 29.1458 56.3125 30.0625C56.4792 30.9375 56.6875 31.7292 56.9375 32.4375C57.2292 33.1458 57.5833 33.7292 58 34.1875C58.4167 34.6042 58.8958 34.8125 59.4375 34.8125C59.8958 34.8125 60.3542 34.7708 60.8125 34.6875C61.3125 34.6042 61.75 34.5208 62.125 34.4375L64.375 33.3125C64.5 33.1458 64.7083 32.9375 65 32.6875C65.2917 32.3958 65.5208 32.1042 65.6875 31.8125C66.0625 30.4375 66.25 29.0833 66.25 27.75C66.25 26 65.9583 24.3333 65.375 22.75C64.7917 21.125 63.8958 19.6458 62.6875 18.3125L61.9375 17.9375H61.875C61.7917 17.9375 61.7292 17.9167 61.6875 17.875ZM84.0625 10.9375C83.5625 10.7292 83.1458 10.4167 82.8125 10C82.5208 9.54167 82.375 9.08333 82.375 8.625C82.375 8 82.5833 7.39583 83 6.8125C83.4583 6.22917 84.1667 5.9375 85.125 5.9375C86.375 6.1875 87.4583 6.54167 88.375 7C89.3333 7.45833 90.25 7.77083 91.125 7.9375C91.875 8.14583 92.4167 8.52083 92.75 9.0625C93.0833 9.5625 93.25 10.0625 93.25 10.5625C93.25 11.1458 93.0208 11.7083 92.5625 12.25C92.1458 12.7917 91.5833 13.0625 90.875 13.0625C89.6667 13.0625 88.5208 12.7917 87.4375 12.25C86.3958 11.7083 85.2708 11.2708 84.0625 10.9375ZM76.125 49.625C74.7083 49.3333 73.9375 48.2083 73.8125 46.25V46.0625C74.0625 45.2708 74.375 44.6875 74.75 44.3125C75.125 43.9792 75.6667 43.8125 76.375 43.8125C76.75 43.8125 77.0833 43.9167 77.375 44.125L77.5 44.1875C78.0417 44.5208 78.4583 44.7917 78.75 45C79.0833 45.25 79.375 45.4375 79.625 45.5625C79.875 45.6875 80.125 45.7708 80.375 45.8125C80.6667 45.8958 81.0625 45.9375 81.5625 45.9375C83.1042 45.9375 84.3333 45.5208 85.25 44.6875C86.2083 43.8958 86.9167 42.9375 87.375 41.8125C87.8333 40.6875 88.125 39.5417 88.25 38.375C88.4167 37.25 88.5 36.3542 88.5 35.6875C88.5 35.1458 88.4792 34.6667 88.4375 34.25C88.3958 33.8333 88.3542 33.375 88.3125 32.875C88.2708 32.375 88.2292 31.7708 88.1875 31.0625C88.1458 30.3542 88.125 29.3958 88.125 28.1875C88.0417 27.1458 87.9792 26.3333 87.9375 25.75C87.8958 25.125 87.8542 24.6458 87.8125 24.3125C87.8125 23.9792 87.7917 23.7292 87.75 23.5625C87.75 23.3542 87.75 23.125 87.75 22.875V20.3125C87.9167 19.6042 88.2292 19.0417 88.6875 18.625C89.1458 18.2083 89.6667 18 90.25 18C90.7917 18 91.2917 18.1875 91.75 18.5625C92.25 18.8958 92.625 19.4583 92.875 20.25C92.875 22.6667 93.0208 25.2292 93.3125 27.9375C93.6042 30.6458 93.75 33.3125 93.75 35.9375C93.75 37.4792 93.5625 39.125 93.1875 40.875C92.8542 42.625 92.2083 44.25 91.25 45.75C90.3333 47.25 89.0625 48.4792 87.4375 49.4375C85.8542 50.4375 83.8125 50.9375 81.3125 50.9375C80.3542 50.9375 79.3958 50.8125 78.4375 50.5625C77.5208 50.3542 76.75 50.0417 76.125 49.625ZM105.062 20.5C104.979 20.5417 104.938 20.5833 104.938 20.625H105.062C105.354 20.625 105.646 20.7083 105.938 20.875C106.229 21 106.479 21.1667 106.688 21.375C106.896 21.5417 107.062 21.7083 107.188 21.875C107.354 22 107.458 22.0625 107.5 22.0625C108.125 22.3542 108.812 22.5 109.562 22.5C110.771 22.5 111.792 22.3333 112.625 22C113.458 21.625 113.875 20.75 113.875 19.375C113.625 18.5417 113.333 17.8542 113 17.3125C112.708 16.7708 112.208 16.25 111.5 15.75L110.188 15.1875H109.312C108.979 15.1875 108.542 15.2708 108 15.4375C107.458 15.6042 106.917 15.8333 106.375 16.125C106.208 16.375 106.042 16.75 105.875 17.25C105.708 17.7083 105.562 18.1667 105.438 18.625C105.312 19.0833 105.208 19.5 105.125 19.875C105.083 20.25 105.062 20.4583 105.062 20.5ZM105.562 26.5625L105.375 25.875C105.875 28.0833 107.083 29.8958 109 31.3125C109.417 31.6458 109.938 31.9375 110.562 32.1875C111.229 32.4375 111.875 32.6667 112.5 32.875C113.167 33.0833 113.75 33.25 114.25 33.375C114.75 33.4583 115.062 33.5 115.188 33.5C115.604 33.125 116.125 32.9375 116.75 32.9375C117.5 33.0208 118.083 33.3333 118.5 33.875C118.917 34.375 119.125 34.9167 119.125 35.5C119.125 36.4167 118.688 37.1458 117.812 37.6875C116.979 38.2708 116.083 38.5625 115.125 38.5625C113.083 38.5625 111.146 38.1458 109.312 37.3125C107.479 36.5208 105.875 35.4375 104.5 34.0625C103.125 32.6875 102 31.1042 101.125 29.3125C100.292 27.5208 99.8333 25.625 99.75 23.625C99.75 22.25 99.8542 20.7708 100.062 19.1875C100.271 17.6042 100.708 16.1458 101.375 14.8125C102.042 13.4375 103 12.2917 104.25 11.375C105.542 10.4583 107.25 10 109.375 10C110.708 10 111.958 10.2917 113.125 10.875C114.292 11.4167 115.292 12.1667 116.125 13.125C117 14.0833 117.688 15.1875 118.188 16.4375C118.688 17.6458 118.938 18.9167 118.938 20.25C118.938 21.4583 118.708 22.5208 118.25 23.4375C117.833 24.3542 117.25 25.125 116.5 25.75C115.75 26.3333 114.854 26.7917 113.812 27.125C112.812 27.4167 111.75 27.5625 110.625 27.5625C110.167 27.5625 109.646 27.5208 109.062 27.4375C108.521 27.3542 108 27.2708 107.5 27.1875C107 27.0625 106.562 26.9583 106.188 26.875C105.854 26.75 105.646 26.6458 105.562 26.5625ZM146 12.5625C146.042 12.7708 146.062 12.9583 146.062 13.125C146.104 13.25 146.125 13.3958 146.125 13.5625C146.125 14.2292 145.875 14.8333 145.375 15.375C144.917 15.9167 144.333 16.1875 143.625 16.1875C143.25 16.1875 142.958 16.125 142.75 16C142.583 15.875 142.396 15.7083 142.188 15.5C142.021 15.2917 141.792 15.0417 141.5 14.75C141.25 14.4583 140.854 14.1458 140.312 13.8125L139.188 13.4375C138.646 13.2708 138.042 13.1875 137.375 13.1875C136.042 13.1875 134.875 13.5208 133.875 14.1875C132.875 14.8125 132.021 15.625 131.312 16.625C130.646 17.625 130.125 18.7292 129.75 19.9375C129.417 21.1458 129.25 22.3125 129.25 23.4375C129.25 24.6875 129.438 25.8542 129.812 26.9375C130.229 27.9792 130.812 28.8958 131.562 29.6875C132.354 30.4375 133.292 31.0417 134.375 31.5C135.5 31.9583 136.75 32.1875 138.125 32.1875C138.958 32.1875 139.792 32.0833 140.625 31.875C141.458 31.6667 142.208 31.2917 142.875 30.75L143.062 30.5C143.562 29.75 144.25 29.375 145.125 29.375C145.458 29.375 145.854 29.4375 146.312 29.5625L146.562 29.6875C147.438 30.3958 147.875 31.125 147.875 31.875C147.875 32.7917 147.521 33.5833 146.812 34.25C146.104 34.9167 145.25 35.4792 144.25 35.9375C143.25 36.3542 142.188 36.6667 141.062 36.875C139.979 37.0833 139.062 37.1875 138.312 37.1875C136.312 37.1875 134.458 36.875 132.75 36.25C131.042 35.5833 129.542 34.6667 128.25 33.5C127 32.2917 126 30.8333 125.25 29.125C124.542 27.4167 124.188 25.4792 124.188 23.3125C124.188 21.3542 124.521 19.4583 125.188 17.625C125.854 15.7917 126.792 14.1667 128 12.75C129.208 11.2917 130.646 10.125 132.312 9.25C134.021 8.375 135.917 7.9375 138 7.9375C139.5 7.9375 140.938 8.29167 142.312 9C143.729 9.66667 144.958 10.8542 146 12.5625ZM170.75 31.4375C171.292 30.8125 171.75 30.4167 172.125 30.25C172.542 30.0417 172.979 29.9375 173.438 29.9375C174.146 29.9375 174.667 30.2292 175 30.8125C175.375 31.3958 175.562 32.0625 175.562 32.8125C175.354 33.6042 175 34.2708 174.5 34.8125C174.042 35.3542 173.479 35.7917 172.812 36.125C172.146 36.4583 171.417 36.7083 170.625 36.875C169.833 37 169.042 37.0625 168.25 37.0625C167.417 37.0208 166.583 36.8958 165.75 36.6875C164.958 36.4792 164.208 36.2083 163.5 35.875C162.792 35.5 162.167 35.0833 161.625 34.625C161.125 34.125 160.771 33.5625 160.562 32.9375C159.604 30.5625 158.958 28.125 158.625 25.625C158.292 23.0833 158.125 20.625 158.125 18.25V16.6875L154.25 17.25C153.417 17.1667 152.771 16.875 152.312 16.375C151.896 15.875 151.688 15.2708 151.688 14.5625C151.688 14.1042 151.854 13.6458 152.188 13.1875C152.521 12.6875 153.021 12.3333 153.688 12.125L158.25 11.5625C158.25 10.1042 158.292 8.66667 158.375 7.25C158.5 5.79167 158.583 4.33333 158.625 2.875C159.083 1.41667 159.917 0.604167 161.125 0.4375C162.333 0.4375 163.208 1.20833 163.75 2.75C163.667 4.41667 163.542 6.5 163.375 9L163.25 10.75C164.333 10.5833 165.458 10.4583 166.625 10.375C167.792 10.2917 169.021 10.25 170.312 10.25C171.812 10.7917 172.562 11.625 172.562 12.75C172.479 13.3333 172.25 13.875 171.875 14.375C171.5 14.8333 170.938 15.1458 170.188 15.3125C167.729 15.3125 165.375 15.5 163.125 15.875V17.5C163.125 18.8333 163.167 20.1667 163.25 21.5C163.333 22.7917 163.438 24.0417 163.562 25.25C163.729 26.4167 163.938 27.5 164.188 28.5C164.438 29.4583 164.729 30.25 165.062 30.875C165.604 31.125 166.229 31.375 166.938 31.625C167.646 31.8333 168.333 31.9375 169 31.9375C169.375 31.9375 169.875 31.8333 170.5 31.625L170.75 31.4375ZM195.5 10.9375C196.167 11.1458 196.667 11.5 197 12C197.333 12.5 197.5 13 197.5 13.5C197.5 14.2083 197.25 14.8125 196.75 15.3125C196.25 15.7708 195.646 16 194.938 16C194.729 16 194.562 15.9792 194.438 15.9375C193.562 15.6875 192.75 15.5 192 15.375C191.25 15.2083 190.521 15.125 189.812 15.125C189.188 15.125 188.562 15.1875 187.938 15.3125C187.312 15.4375 186.646 15.6042 185.938 15.8125L185.875 15.875C186.5 17.0833 187.354 18.1458 188.438 19.0625C189.521 19.9792 190.646 20.9167 191.812 21.875C192.979 22.7917 194.083 23.7708 195.125 24.8125C196.208 25.8542 197 27.0625 197.5 28.4375C197.708 28.9792 197.812 29.5417 197.812 30.125C197.812 31 197.646 31.9167 197.312 32.875C196.979 33.8333 196.479 34.7083 195.812 35.5C195.188 36.2917 194.375 36.9375 193.375 37.4375C192.375 37.9792 191.188 38.25 189.812 38.25C188.271 38.25 186.854 38 185.562 37.5C184.312 37.0417 183.208 36.4167 182.25 35.625L181.062 34.875L180.5 34.3125C179.875 33.7708 179.542 33.1042 179.5 32.3125V31.9375C179.625 31.1458 179.896 30.5833 180.312 30.25C180.771 29.875 181.312 29.6458 181.938 29.5625C182.771 29.5625 183.542 30 184.25 30.875L185.75 31.6875C186.333 32.0208 186.979 32.3542 187.688 32.6875C188.438 33.0208 189.167 33.1875 189.875 33.1875C190.458 33.1875 191.021 33.0208 191.562 32.6875L191.938 32.375C192.062 32 192.167 31.625 192.25 31.25C192.375 30.875 192.438 30.5208 192.438 30.1875C192.438 29.5625 192.292 29.0417 192 28.625C191.75 28.1667 191.396 27.7708 190.938 27.4375C190.521 27.0625 190.062 26.7292 189.562 26.4375C189.062 26.1042 188.562 25.75 188.062 25.375C187.604 25.0417 186.958 24.5208 186.125 23.8125C185.333 23.0625 184.521 22.2292 183.688 21.3125C182.854 20.3958 182.125 19.4375 181.5 18.4375C180.917 17.3958 180.625 16.4375 180.625 15.5625C180.625 14.5208 180.938 13.6458 181.562 12.9375C182.188 12.1875 182.958 11.6042 183.875 11.1875C184.792 10.7292 185.75 10.4167 186.75 10.25C187.75 10.0417 188.604 9.9375 189.312 9.9375C190.479 9.9375 191.521 10.0208 192.438 10.1875C193.396 10.3542 194.417 10.6042 195.5 10.9375Z" fill="white"/>
</svg>
